<mxfile host="app.diagrams.net" agent="Mozilla/5.0 (Windows NT 10.0; Win64; x64; rv:130.0) Gecko/20100101 Firefox/130.0" version="24.7.13">
  <diagram name="Page-1" id="N0Hd7t6T6hSaKdjdyGFI">
    <mxGraphModel dx="3640" dy="2833" grid="1" gridSize="10" guides="1" tooltips="1" connect="1" arrows="1" fold="1" page="1" pageScale="1" pageWidth="1169" pageHeight="827" math="0" shadow="0">
      <root>
        <mxCell id="0" />
        <mxCell id="1" parent="0" />
        <mxCell id="f4Jtz0p4KT4NomE1Ug3G-1" value="Update Article" style="whiteSpace=wrap;html=1;fontSize=50;verticalAlign=top;movable=0;resizable=0;rotatable=0;deletable=0;editable=0;locked=1;connectable=0;" parent="1" vertex="1">
          <mxGeometry width="1600" height="900" as="geometry" />
        </mxCell>
        <mxCell id="f4Jtz0p4KT4NomE1Ug3G-6" value="" style="rounded=0;whiteSpace=wrap;html=1;strokeColor=default;fontSize=28;align=left;strokeWidth=2;" parent="1" vertex="1">
          <mxGeometry x="210" y="270" width="1360" height="80" as="geometry" />
        </mxCell>
        <mxCell id="f4Jtz0p4KT4NomE1Ug3G-8" value="" style="rounded=0;whiteSpace=wrap;html=1;strokeColor=default;fontSize=28;align=left;strokeWidth=2;" parent="1" vertex="1">
          <mxGeometry x="210" y="210" width="1360" height="40" as="geometry" />
        </mxCell>
        <mxCell id="f4Jtz0p4KT4NomE1Ug3G-31" value="" style="group;fontSize=28;align=center;" parent="1" vertex="1" connectable="0">
          <mxGeometry x="210" y="361" width="200" height="105" as="geometry" />
        </mxCell>
        <mxCell id="f4Jtz0p4KT4NomE1Ug3G-20" value="" style="rounded=0;whiteSpace=wrap;html=1;fontSize=28;align=center;strokeWidth=2;" parent="f4Jtz0p4KT4NomE1Ug3G-31" vertex="1">
          <mxGeometry width="200" height="90" as="geometry" />
        </mxCell>
        <mxCell id="f4Jtz0p4KT4NomE1Ug3G-30" value="" style="group;fontSize=28;" parent="f4Jtz0p4KT4NomE1Ug3G-31" vertex="1" connectable="0">
          <mxGeometry x="10.526315789473683" y="10" width="178.94736842105263" height="95" as="geometry" />
        </mxCell>
        <mxCell id="f4Jtz0p4KT4NomE1Ug3G-27" value="" style="group;fontSize=28;" parent="f4Jtz0p4KT4NomE1Ug3G-30" vertex="1" connectable="0">
          <mxGeometry width="178.94736842105263" height="95" as="geometry" />
        </mxCell>
        <mxCell id="f4Jtz0p4KT4NomE1Ug3G-25" value="Current" style="rounded=0;whiteSpace=wrap;html=1;fontSize=28;align=center;strokeWidth=2;" parent="f4Jtz0p4KT4NomE1Ug3G-27" vertex="1">
          <mxGeometry width="178.94736842105263" height="30" as="geometry" />
        </mxCell>
        <mxCell id="f4Jtz0p4KT4NomE1Ug3G-26" value="" style="ellipse;whiteSpace=wrap;html=1;aspect=fixed;fontSize=28;align=center;strokeWidth=2;" parent="f4Jtz0p4KT4NomE1Ug3G-27" vertex="1">
          <mxGeometry width="30" height="30" as="geometry" />
        </mxCell>
        <mxCell id="f4Jtz0p4KT4NomE1Ug3G-29" value="" style="ellipse;whiteSpace=wrap;html=1;aspect=fixed;fillColor=#000000;fontSize=28;align=center;strokeWidth=2;" parent="f4Jtz0p4KT4NomE1Ug3G-27" vertex="1">
          <mxGeometry x="5.263157894736842" y="5" width="20" height="20" as="geometry" />
        </mxCell>
        <mxCell id="f4Jtz0p4KT4NomE1Ug3G-28" value="" style="group;fontSize=28;align=center;strokeWidth=2;" parent="f4Jtz0p4KT4NomE1Ug3G-30" vertex="1" connectable="0">
          <mxGeometry y="40" width="178.94736842105263" height="30" as="geometry" />
        </mxCell>
        <mxCell id="f4Jtz0p4KT4NomE1Ug3G-22" value="On Loan" style="rounded=0;whiteSpace=wrap;html=1;fontSize=28;align=center;strokeWidth=2;" parent="f4Jtz0p4KT4NomE1Ug3G-28" vertex="1">
          <mxGeometry width="178.94736842105263" height="30" as="geometry" />
        </mxCell>
        <mxCell id="f4Jtz0p4KT4NomE1Ug3G-19" value="" style="ellipse;whiteSpace=wrap;html=1;aspect=fixed;fontSize=28;align=center;strokeWidth=2;" parent="f4Jtz0p4KT4NomE1Ug3G-28" vertex="1">
          <mxGeometry width="30" height="30" as="geometry" />
        </mxCell>
        <mxCell id="f4Jtz0p4KT4NomE1Ug3G-37" value="" style="group;fontSize=28;strokeWidth=2;" parent="1" vertex="1" connectable="0">
          <mxGeometry x="210" y="466" width="120" height="40" as="geometry" />
        </mxCell>
        <mxCell id="f4Jtz0p4KT4NomE1Ug3G-33" value="&lt;div style=&quot;font-size: 28px;&quot;&gt;000&lt;br style=&quot;font-size: 28px;&quot;&gt;&lt;/div&gt;" style="rounded=0;whiteSpace=wrap;html=1;fontSize=28;align=left;strokeWidth=2;" parent="f4Jtz0p4KT4NomE1Ug3G-37" vertex="1">
          <mxGeometry width="120" height="40" as="geometry" />
        </mxCell>
        <mxCell id="f4Jtz0p4KT4NomE1Ug3G-34" value="" style="triangle;whiteSpace=wrap;html=1;rotation=-90;fontSize=28;strokeWidth=2;" parent="f4Jtz0p4KT4NomE1Ug3G-37" vertex="1">
          <mxGeometry x="97.5" y="-2.5" width="10" height="25" as="geometry" />
        </mxCell>
        <mxCell id="f4Jtz0p4KT4NomE1Ug3G-36" value="" style="triangle;whiteSpace=wrap;html=1;rotation=90;fontSize=28;strokeWidth=2;" parent="f4Jtz0p4KT4NomE1Ug3G-37" vertex="1">
          <mxGeometry x="97.5" y="15" width="10" height="25" as="geometry" />
        </mxCell>
        <mxCell id="f4Jtz0p4KT4NomE1Ug3G-38" value="DD/MM/YYYY" style="rounded=0;whiteSpace=wrap;html=1;fontSize=28;strokeWidth=2;" parent="1" vertex="1">
          <mxGeometry x="210" y="530" width="220" height="40" as="geometry" />
        </mxCell>
        <mxCell id="f4Jtz0p4KT4NomE1Ug3G-39" value="Title:" style="rounded=0;whiteSpace=wrap;html=1;fontSize=30;fillColor=#DEDEDE;" parent="1" vertex="1">
          <mxGeometry x="20" y="210" width="160" height="40" as="geometry" />
        </mxCell>
        <mxCell id="f4Jtz0p4KT4NomE1Ug3G-40" value="Articles:" style="rounded=0;whiteSpace=wrap;html=1;fontSize=30;fillColor=#DEDEDE;" parent="1" vertex="1">
          <mxGeometry x="20" y="93" width="160" height="40" as="geometry" />
        </mxCell>
        <mxCell id="f4Jtz0p4KT4NomE1Ug3G-3" value="" style="rounded=0;whiteSpace=wrap;html=1;fontSize=28;align=left;strokeWidth=2;" parent="1" vertex="1">
          <mxGeometry x="210" y="93" width="840" height="40" as="geometry" />
        </mxCell>
        <mxCell id="f4Jtz0p4KT4NomE1Ug3G-4" value="" style="triangle;whiteSpace=wrap;html=1;rotation=90;fillColor=#000000;strokeWidth=2;" parent="1" vertex="1">
          <mxGeometry x="1012.94" y="100.06" width="30" height="30" as="geometry" />
        </mxCell>
        <mxCell id="f4Jtz0p4KT4NomE1Ug3G-43" value="Notes:" style="rounded=0;whiteSpace=wrap;html=1;fontSize=30;fillColor=#DEDEDE;" parent="1" vertex="1">
          <mxGeometry x="20" y="270" width="160" height="40" as="geometry" />
        </mxCell>
        <mxCell id="f4Jtz0p4KT4NomE1Ug3G-44" value="Status:" style="rounded=0;whiteSpace=wrap;html=1;fontSize=30;fillColor=#DEDEDE;" parent="1" vertex="1">
          <mxGeometry x="20" y="360" width="160" height="40" as="geometry" />
        </mxCell>
        <mxCell id="f4Jtz0p4KT4NomE1Ug3G-45" value="Pages:" style="rounded=0;whiteSpace=wrap;html=1;fontSize=30;fillColor=#DEDEDE;" parent="1" vertex="1">
          <mxGeometry x="20" y="466" width="160" height="40" as="geometry" />
        </mxCell>
        <mxCell id="f4Jtz0p4KT4NomE1Ug3G-46" value="Date &lt;br&gt;Published:" style="rounded=0;whiteSpace=wrap;html=1;fontSize=30;fillColor=#DEDEDE;" parent="1" vertex="1">
          <mxGeometry x="20" y="530" width="160" height="80" as="geometry" />
        </mxCell>
        <mxCell id="f4Jtz0p4KT4NomE1Ug3G-47" value="Update Article" style="rounded=0;whiteSpace=wrap;html=1;fontSize=50;strokeWidth=2;" parent="1" vertex="1">
          <mxGeometry x="20" y="800" width="320" height="80" as="geometry" />
        </mxCell>
        <mxCell id="f4Jtz0p4KT4NomE1Ug3G-48" value="Return" style="rounded=0;whiteSpace=wrap;html=1;fontSize=50;strokeWidth=2;" parent="1" vertex="1">
          <mxGeometry x="1290" y="800" width="290" height="80" as="geometry" />
        </mxCell>
        <mxCell id="f4Jtz0p4KT4NomE1Ug3G-50" style="edgeStyle=orthogonalEdgeStyle;rounded=0;orthogonalLoop=1;jettySize=auto;html=1;fontSize=100;strokeWidth=5;exitX=0;exitY=0.5;exitDx=0;exitDy=0;" parent="1" source="f4Jtz0p4KT4NomE1Ug3G-49" target="f4Jtz0p4KT4NomE1Ug3G-48" edge="1">
          <mxGeometry relative="1" as="geometry">
            <Array as="points">
              <mxPoint x="1435" y="1035" />
            </Array>
          </mxGeometry>
        </mxCell>
        <mxCell id="f4Jtz0p4KT4NomE1Ug3G-49" value="Button that returns the user to the menu" style="rounded=0;whiteSpace=wrap;html=1;fontSize=30;" parent="1" vertex="1">
          <mxGeometry x="1770" y="980" width="530" height="105" as="geometry" />
        </mxCell>
        <mxCell id="f4Jtz0p4KT4NomE1Ug3G-52" style="edgeStyle=orthogonalEdgeStyle;rounded=0;orthogonalLoop=1;jettySize=auto;html=1;entryX=0.5;entryY=1;entryDx=0;entryDy=0;strokeWidth=5;" parent="1" source="f4Jtz0p4KT4NomE1Ug3G-51" target="f4Jtz0p4KT4NomE1Ug3G-47" edge="1">
          <mxGeometry relative="1" as="geometry" />
        </mxCell>
        <mxCell id="f4Jtz0p4KT4NomE1Ug3G-51" value="Button that updates the article and displays the message &quot;Article updated successfully&quot;" style="rounded=0;whiteSpace=wrap;html=1;fontSize=30;" parent="1" vertex="1">
          <mxGeometry x="30" y="955" width="530" height="155" as="geometry" />
        </mxCell>
        <mxCell id="zkrj8ikKc5orAXMIiYBu-2" style="edgeStyle=orthogonalEdgeStyle;rounded=0;orthogonalLoop=1;jettySize=auto;html=1;strokeWidth=5;entryX=1;entryY=0.5;entryDx=0;entryDy=0;" parent="1" source="zkrj8ikKc5orAXMIiYBu-1" target="f4Jtz0p4KT4NomE1Ug3G-3" edge="1">
          <mxGeometry relative="1" as="geometry">
            <mxPoint x="1100" y="83" as="targetPoint" />
          </mxGeometry>
        </mxCell>
        <mxCell id="zkrj8ikKc5orAXMIiYBu-21" style="edgeStyle=orthogonalEdgeStyle;rounded=0;orthogonalLoop=1;jettySize=auto;html=1;entryX=1;entryY=0.5;entryDx=0;entryDy=0;strokeWidth=5;" parent="1" source="zkrj8ikKc5orAXMIiYBu-1" target="zkrj8ikKc5orAXMIiYBu-4" edge="1">
          <mxGeometry relative="1" as="geometry" />
        </mxCell>
        <mxCell id="zkrj8ikKc5orAXMIiYBu-1" value="Combo Box that will show the Article ID and Title of articles not on loan for the catalog clerk to select to update" style="rounded=0;whiteSpace=wrap;html=1;fontSize=30;" parent="1" vertex="1">
          <mxGeometry x="1030" y="-190" width="530" height="160" as="geometry" />
        </mxCell>
        <mxCell id="zkrj8ikKc5orAXMIiYBu-4" value="" style="swimlane;fontStyle=0;childLayout=stackLayout;horizontal=1;startSize=30;horizontalStack=0;resizeParent=1;resizeParentMax=0;resizeLast=0;collapsible=1;marginBottom=0;whiteSpace=wrap;html=1;fontSize=30;align=left;fillColor=default;" parent="1" vertex="1">
          <mxGeometry x="270" y="-460" width="610" height="430" as="geometry">
            <mxRectangle x="1800" y="340" width="90" height="50" as="alternateBounds" />
          </mxGeometry>
        </mxCell>
        <mxCell id="zkrj8ikKc5orAXMIiYBu-12" value="2007&amp;nbsp;&amp;nbsp;&amp;nbsp; Use of NOAA data in the Pacific" style="text;html=1;align=left;verticalAlign=middle;resizable=0;points=[];autosize=1;strokeColor=none;fillColor=default;fontSize=30;" parent="zkrj8ikKc5orAXMIiYBu-4" vertex="1">
          <mxGeometry y="30" width="610" height="50" as="geometry" />
        </mxCell>
        <mxCell id="zkrj8ikKc5orAXMIiYBu-11" value="2008    Construction Projects Review" style="text;html=1;align=left;verticalAlign=middle;resizable=0;points=[];autosize=1;strokeColor=none;fillColor=default;fontSize=30;" parent="zkrj8ikKc5orAXMIiYBu-4" vertex="1">
          <mxGeometry y="80" width="610" height="50" as="geometry" />
        </mxCell>
        <mxCell id="zkrj8ikKc5orAXMIiYBu-14" value="2009    Wireless Networks Review" style="text;html=1;align=left;verticalAlign=middle;resizable=0;points=[];autosize=1;strokeColor=none;fillColor=default;fontSize=30;" parent="zkrj8ikKc5orAXMIiYBu-4" vertex="1">
          <mxGeometry y="130" width="610" height="50" as="geometry" />
        </mxCell>
        <mxCell id="zkrj8ikKc5orAXMIiYBu-15" value="2010    Species Monitoring with GPS" style="text;html=1;align=left;verticalAlign=middle;resizable=0;points=[];autosize=1;strokeColor=none;fillColor=default;fontSize=30;" parent="zkrj8ikKc5orAXMIiYBu-4" vertex="1">
          <mxGeometry y="180" width="610" height="50" as="geometry" />
        </mxCell>
        <mxCell id="zkrj8ikKc5orAXMIiYBu-17" value="2011    Study of Denial of Service" style="text;html=1;align=left;verticalAlign=middle;resizable=0;points=[];autosize=1;strokeColor=none;fillColor=default;fontSize=30;" parent="zkrj8ikKc5orAXMIiYBu-4" vertex="1">
          <mxGeometry y="230" width="610" height="50" as="geometry" />
        </mxCell>
        <mxCell id="zkrj8ikKc5orAXMIiYBu-18" value="2012    Encroachment detection in Auckland" style="text;html=1;align=left;verticalAlign=middle;resizable=0;points=[];autosize=1;strokeColor=none;fillColor=default;fontSize=30;" parent="zkrj8ikKc5orAXMIiYBu-4" vertex="1">
          <mxGeometry y="280" width="610" height="50" as="geometry" />
        </mxCell>
        <mxCell id="zkrj8ikKc5orAXMIiYBu-19" value="2013    Malware Analysis" style="text;html=1;align=left;verticalAlign=middle;resizable=0;points=[];autosize=1;strokeColor=none;fillColor=default;fontSize=30;" parent="zkrj8ikKc5orAXMIiYBu-4" vertex="1">
          <mxGeometry y="330" width="610" height="50" as="geometry" />
        </mxCell>
        <mxCell id="zkrj8ikKc5orAXMIiYBu-16" value="2014    Rural GIS Applications" style="text;html=1;align=left;verticalAlign=middle;resizable=0;points=[];autosize=1;strokeColor=none;fillColor=default;fontSize=30;" parent="zkrj8ikKc5orAXMIiYBu-4" vertex="1">
          <mxGeometry y="380" width="610" height="50" as="geometry" />
        </mxCell>
        <mxCell id="zkrj8ikKc5orAXMIiYBu-23" style="edgeStyle=orthogonalEdgeStyle;rounded=0;orthogonalLoop=1;jettySize=auto;html=1;entryX=1;entryY=0.5;entryDx=0;entryDy=0;strokeWidth=5;exitX=0;exitY=0.5;exitDx=0;exitDy=0;" parent="1" source="zkrj8ikKc5orAXMIiYBu-22" edge="1">
          <mxGeometry relative="1" as="geometry">
            <Array as="points" />
            <mxPoint x="2700" y="450" as="sourcePoint" />
            <mxPoint x="1540" y="230" as="targetPoint" />
          </mxGeometry>
        </mxCell>
        <mxCell id="zkrj8ikKc5orAXMIiYBu-22" value="Text Box with max length of 50 characters for the catalog clerk to update the title" style="rounded=0;whiteSpace=wrap;html=1;fontSize=30;" parent="1" vertex="1">
          <mxGeometry x="1930" y="150" width="530" height="160" as="geometry" />
        </mxCell>
        <mxCell id="zkrj8ikKc5orAXMIiYBu-25" style="edgeStyle=orthogonalEdgeStyle;rounded=0;orthogonalLoop=1;jettySize=auto;html=1;entryX=1;entryY=0.5;entryDx=0;entryDy=0;strokeWidth=5;" parent="1" source="zkrj8ikKc5orAXMIiYBu-24" target="f4Jtz0p4KT4NomE1Ug3G-6" edge="1">
          <mxGeometry relative="1" as="geometry">
            <Array as="points">
              <mxPoint x="1670" y="310" />
            </Array>
          </mxGeometry>
        </mxCell>
        <mxCell id="zkrj8ikKc5orAXMIiYBu-24" value="Text Box with max length of 100 characters for the catalog clerk to update the notes" style="rounded=0;whiteSpace=wrap;html=1;fontSize=30;" parent="1" vertex="1">
          <mxGeometry x="1770" y="770" width="530" height="160" as="geometry" />
        </mxCell>
        <mxCell id="zkrj8ikKc5orAXMIiYBu-26" value="Two Radio Buttons that allow the catalog clerk to either select the Current or On Loan status " style="rounded=0;whiteSpace=wrap;html=1;fontSize=30;" parent="1" vertex="1">
          <mxGeometry x="1740" y="326" width="530" height="160" as="geometry" />
        </mxCell>
        <mxCell id="zkrj8ikKc5orAXMIiYBu-27" style="edgeStyle=orthogonalEdgeStyle;rounded=0;orthogonalLoop=1;jettySize=auto;html=1;strokeWidth=5;entryX=1;entryY=0.5;entryDx=0;entryDy=0;exitX=0;exitY=0.5;exitDx=0;exitDy=0;" parent="1" source="zkrj8ikKc5orAXMIiYBu-26" target="f4Jtz0p4KT4NomE1Ug3G-20" edge="1">
          <mxGeometry relative="1" as="geometry">
            <Array as="points" />
            <mxPoint x="1730" y="450" as="sourcePoint" />
            <mxPoint x="530" y="476" as="targetPoint" />
          </mxGeometry>
        </mxCell>
        <mxCell id="zkrj8ikKc5orAXMIiYBu-30" style="edgeStyle=orthogonalEdgeStyle;rounded=0;orthogonalLoop=1;jettySize=auto;html=1;exitX=0;exitY=0.5;exitDx=0;exitDy=0;strokeWidth=5;entryX=1;entryY=0.5;entryDx=0;entryDy=0;" parent="1" source="zkrj8ikKc5orAXMIiYBu-29" target="f4Jtz0p4KT4NomE1Ug3G-33" edge="1">
          <mxGeometry relative="1" as="geometry">
            <Array as="points">
              <mxPoint x="1720" y="660" />
              <mxPoint x="1720" y="486" />
            </Array>
            <mxPoint x="600" y="503" as="targetPoint" />
          </mxGeometry>
        </mxCell>
        <mxCell id="zkrj8ikKc5orAXMIiYBu-29" value="Numeric Up and Down that has a range of 1 to 100 for the catalog clerk to select number of pages" style="rounded=0;whiteSpace=wrap;html=1;fontSize=30;" parent="1" vertex="1">
          <mxGeometry x="1830" y="580" width="530" height="160" as="geometry" />
        </mxCell>
        <mxCell id="zkrj8ikKc5orAXMIiYBu-32" style="edgeStyle=orthogonalEdgeStyle;rounded=0;orthogonalLoop=1;jettySize=auto;html=1;entryX=1;entryY=0.25;entryDx=0;entryDy=0;exitX=0;exitY=0.5;exitDx=0;exitDy=0;strokeWidth=5;" parent="1" source="zkrj8ikKc5orAXMIiYBu-31" target="f4Jtz0p4KT4NomE1Ug3G-38" edge="1">
          <mxGeometry relative="1" as="geometry">
            <Array as="points">
              <mxPoint x="1220" y="1210" />
              <mxPoint x="1220" y="540" />
            </Array>
          </mxGeometry>
        </mxCell>
        <mxCell id="zkrj8ikKc5orAXMIiYBu-31" value="Date and Time picker&amp;nbsp; with the format DD/MM/YYYY for the catalog clerk to select date published" style="rounded=0;whiteSpace=wrap;html=1;fontSize=30;" parent="1" vertex="1">
          <mxGeometry x="1440" y="1130" width="530" height="160" as="geometry" />
        </mxCell>
        <mxCell id="zkrj8ikKc5orAXMIiYBu-33" value="Text in black will be labels, captions, or example of format" style="rounded=0;whiteSpace=wrap;html=1;fontSize=30;strokeWidth=2;" parent="1" vertex="1">
          <mxGeometry x="640" y="1240" width="530" height="127" as="geometry" />
        </mxCell>
        <mxCell id="RjwAec6_66TozSnkLIB1-1" value="Article ID:" style="rounded=0;whiteSpace=wrap;html=1;fontSize=30;fillColor=#DEDEDE;" parent="1" vertex="1">
          <mxGeometry x="20" y="150" width="160" height="40" as="geometry" />
        </mxCell>
        <mxCell id="RjwAec6_66TozSnkLIB1-2" value="" style="rounded=0;whiteSpace=wrap;html=1;strokeColor=default;fontSize=28;align=left;strokeWidth=2;fillColor=#E6E6E6;" parent="1" vertex="1">
          <mxGeometry x="210" y="150" width="220" height="40" as="geometry" />
        </mxCell>
        <mxCell id="RjwAec6_66TozSnkLIB1-8" value="" style="rounded=0;whiteSpace=wrap;html=1;strokeColor=default;fontSize=28;align=left;strokeWidth=2;fillColor=#E6E6E6;" parent="1" vertex="1">
          <mxGeometry x="210" y="630" width="970" height="40" as="geometry" />
        </mxCell>
        <mxCell id="RjwAec6_66TozSnkLIB1-9" value="Topic Description:" style="rounded=0;whiteSpace=wrap;html=1;fontSize=30;fillColor=#DEDEDE;" parent="1" vertex="1">
          <mxGeometry x="20" y="630" width="160" height="80" as="geometry" />
        </mxCell>
        <mxCell id="RjwAec6_66TozSnkLIB1-15" style="edgeStyle=orthogonalEdgeStyle;rounded=0;orthogonalLoop=1;jettySize=auto;html=1;strokeWidth=5;" parent="1" source="RjwAec6_66TozSnkLIB1-14" target="RjwAec6_66TozSnkLIB1-8" edge="1">
          <mxGeometry relative="1" as="geometry" />
        </mxCell>
        <mxCell id="RjwAec6_66TozSnkLIB1-14" value="Read only text box to display Topic discription" style="rounded=0;whiteSpace=wrap;html=1;fontSize=30;" parent="1" vertex="1">
          <mxGeometry x="639" y="1010" width="530" height="160" as="geometry" />
        </mxCell>
        <mxCell id="RjwAec6_66TozSnkLIB1-17" style="edgeStyle=orthogonalEdgeStyle;rounded=0;orthogonalLoop=1;jettySize=auto;html=1;exitX=0.5;exitY=1;exitDx=0;exitDy=0;entryX=1;entryY=0.5;entryDx=0;entryDy=0;strokeWidth=5;" parent="1" source="RjwAec6_66TozSnkLIB1-16" target="RjwAec6_66TozSnkLIB1-2" edge="1">
          <mxGeometry relative="1" as="geometry" />
        </mxCell>
        <mxCell id="RjwAec6_66TozSnkLIB1-16" value="Read only Text Box for displaying Article ID" style="rounded=0;whiteSpace=wrap;html=1;fontSize=30;" parent="1" vertex="1">
          <mxGeometry x="1630" y="20" width="530" height="90" as="geometry" />
        </mxCell>
      </root>
    </mxGraphModel>
  </diagram>
</mxfile>
